<?xml version="1.0" encoding="utf-8"?>
<!-- Svg Vector Icons : http://www.onlinewebfonts.com/icon -->
<!DOCTYPE svg PUBLIC "-//W3C//DTD SVG 1.1//EN" "http://www.w3.org/Graphics/SVG/1.1/DTD/svg11.dtd">
<svg version="1.1" xmlns="http://www.w3.org/2000/svg" xmlns:xlink="http://www.w3.org/1999/xlink" x="0px" y="0px" viewBox="0 0 256 256" enable-background="new 0 0 256 256" xml:space="preserve">
<metadata> Svg Vector Icons : http://www.onlinewebfonts.com/icon </metadata>
<g><g><g><path fill="#000000" d="M120.1,10C82.8,13,49.9,32.1,29.5,62.9c-13,19.6-19.5,41-19.5,64.6c0,10.4,0.5,15.4,2.4,24.7c9.2,44.7,44.7,81,89.4,91c9.3,2.1,15.8,2.8,26.2,2.8c10.4,0,16.9-0.7,26.2-2.8c43.9-9.9,79.1-45,89-89c2.1-9.4,2.8-15.8,2.8-26.2c0-13.4-1.6-24.1-5.4-35.9c-14.1-43.9-52.4-75.6-98.3-81.4C137.9,10.2,124,9.8,120.1,10z M145.9,18.8C189.1,26.1,224.2,58,235,100c2.8,10.7,3.4,15.5,3.4,27.8c0,12.4-0.6,17.6-3.3,28.2c-9.8,38.2-40.9,69.4-79.1,79.1c-10.6,2.7-15.8,3.3-28.2,3.3c-12.4,0-17.1-0.6-27.8-3.4c-37.7-9.8-68.3-39.9-78.6-77.4c-3.1-11.1-3.7-16.5-3.7-29.7c0-13.1,0.7-18.5,3.8-29.9C33.2,55.1,71.1,23,116.3,17.9C122.7,17.2,139.4,17.7,145.9,18.8z"/><path fill="#000000" d="M121.3,67.4l-1.1,0.9l-0.2,60l-0.2,59.9l-28.9-25.3c-15.8-13.9-29.3-25.4-29.9-25.6c-2.8-0.7-5.1,1.5-4.5,4.3c0.2,1.3,64.7,58.2,66.9,59c0.8,0.3,1.7,0.3,2.3,0c0.5-0.2,15.5-13.4,33.1-29.1c22-19.7,32.2-29.1,32.4-30c0.7-2.6-1.9-5.1-4.5-4.4c-0.6,0.2-14.1,11.9-30,26.1l-28.9,25.8l-0.2-60.3c-0.2-58.5-0.3-60.4-1.1-61.3C125.2,66.2,122.8,66.2,121.3,67.4z"/></g></g></g>
</svg>