<!--?xml version="1.0" encoding="utf-8"?-->
<!-- Svg Vector Icons : http://www.onlinewebfonts.com/icon -->

<svg version="1.1" xmlns="http://www.w3.org/2000/svg" xmlns:xlink="http://www.w3.org/1999/xlink" x="0px" y="0px" viewBox="0 0 256 256" enable-background="new 0 0 256 256" xml:space="preserve">
<metadata> Svg Vector Icons : http://www.onlinewebfonts.com/icon </metadata>
<g><g><g><path fill="#000000" data-title="Layer 0" xs="0" d="M120.1,10C71.3,13.8,30.2,46,15.4,92.1c-3.9,12-5.4,22.4-5.4,35.9c0,10.9,0.6,16.5,2.8,26.2c9.9,43.9,45,79.1,89,89c9.3,2.1,15.8,2.8,26.2,2.8s16.9-0.7,26.2-2.8c43.9-9.9,79.1-45,89-89c2.1-9.3,2.8-15.8,2.8-26.2c0-13.4-1.6-24.1-5.4-35.9c-14.1-43.9-52.4-75.6-98.3-81.4C137.9,10.2,124,9.8,120.1,10z M145.9,18.8C189.1,26.1,224.2,58,235,100c2.8,10.7,3.4,15.5,3.4,27.8c0,12.4-0.6,17.6-3.3,28.2c-9.9,38.5-41.2,69.5-80,79.4c-9.9,2.5-15.3,3.1-27.1,3.1c-12.2,0-17.7-0.7-28-3.4c-37.8-9.8-68.3-39.9-78.6-77.4c-3.1-11.1-3.7-16.5-3.7-29.7c0-13.1,0.7-18.5,3.8-29.9C33.2,55.1,71.1,23,116.3,17.9C122.7,17.2,139.4,17.7,145.9,18.8z"/><path fill="#000000" data-title="Layer 1" xs="1" d="M127.2,64.1c-1,0.4-63.1,55.6-64.4,57.2c-1,1.2-0.7,3.3,0.6,4.5c2.6,2.6,1.6,3.4,32.3-24.1l28.3-25.2l0.2,61.5l0.2,61.5l1,1c1.5,1.5,3.8,1.4,5.2-0.2l1.1-1.3v-61.8V75.6l13.4,11.8c44.5,39.1,45.2,39.7,46.7,39.7c2.7,0,4.5-2.9,3.3-5.3c-0.4-0.7-47.5-42.3-64.2-56.7C129.8,63.9,128.5,63.7,127.2,64.1z"/></g></g></g>
</svg>